<svg
                  viewBox="0 0 256 256"
                  width="16"
                  height="16"
                  xmlns="http://www.w3.org/2000/svg"
                >
                  <path
                    d="M12.579 16.795 C 10.759 17.606,8.627 20.188,8.288 21.991 C 7.568 25.832,9.278 29.545,12.480 31.095 C 14.219 31.937,15.034 32.000,24.194 32.000 L 34.038 32.000 34.288 33.387 C 34.425 34.149,40.593 68.099,47.993 108.829 L 61.449 182.885 59.341 185.179 C 54.750 190.172,52.556 195.471,52.173 202.493 C 51.879 207.868,52.720 212.009,55.050 216.665 C 58.238 223.034,64.516 228.420,71.375 230.668 C 74.392 231.657,75.593 231.817,80.000 231.817 C 84.407 231.817,85.608 231.657,88.625 230.668 C 97.874 227.636,105.227 219.545,107.332 210.082 C 108.325 205.616,108.010 199.353,106.577 195.093 L 105.537 192.000 132.113 192.000 L 158.690 192.000 157.907 193.826 C 155.944 198.405,155.569 205.768,157.012 211.409 C 158.237 216.196,160.393 219.787,164.485 223.852 C 168.669 228.009,173.048 230.355,178.754 231.497 C 192.556 234.260,206.611 225.744,210.847 212.053 C 212.138 207.881,212.236 200.384,211.050 196.504 C 209.510 191.467,207.762 188.562,203.948 184.704 C 199.708 180.415,196.195 178.292,191.281 177.050 C 187.989 176.217,186.372 176.191,132.384 176.097 C 101.852 176.044,76.769 175.898,76.644 175.773 C 76.519 175.648,75.530 170.656,74.445 164.680 C 73.361 158.703,72.370 153.381,72.244 152.853 L 72.014 151.893 132.114 151.888 L 192.213 151.882 195.634 150.691 C 203.330 148.012,209.049 142.065,211.040 134.669 C 211.894 131.499,224.002 65.168,223.991 63.723 C 223.967 60.666,221.208 57.196,218.120 56.339 C 217.054 56.043,189.948 55.897,135.573 55.896 C 91.045 55.894,54.613 55.828,54.613 55.748 C 54.613 55.668,53.456 49.291,52.042 41.576 C 50.310 32.121,49.140 26.825,48.454 25.327 C 47.068 22.300,44.476 19.606,41.281 17.873 L 38.613 16.427 26.240 16.324 C 16.622 16.245,13.580 16.350,12.579 16.795 M201.112 101.013 C 197.710 119.772,195.569 130.552,195.014 131.719 C 194.493 132.814,193.456 133.983,192.364 134.706 L 190.569 135.893 129.845 136.006 C 96.446 136.068,69.120 135.970,69.120 135.789 C 69.120 135.432,58.199 75.212,57.784 73.280 L 57.532 72.107 131.943 72.107 L 206.354 72.107 201.112 101.013 M83.879 192.779 C 86.560 193.705,88.222 195.022,90.044 197.659 C 91.276 199.442,91.473 200.113,91.646 203.107 C 91.897 207.447,91.111 209.649,88.305 212.454 C 83.730 217.030,76.462 217.111,71.860 212.639 C 69.208 210.061,68.205 207.652,68.217 203.888 C 68.233 198.629,71.152 194.495,76.039 192.807 C 78.871 191.828,81.106 191.820,83.879 192.779 M187.594 192.638 C 188.876 193.019,190.566 194.001,191.786 195.075 C 198.412 200.908,196.783 211.227,188.648 214.951 C 186.700 215.843,185.903 215.970,183.312 215.802 C 181.637 215.693,179.645 215.282,178.886 214.887 C 170.382 210.473,169.806 198.647,177.861 193.840 C 181.077 191.921,183.974 191.563,187.594 192.638 "
                    fill="currentColor"
                    stroke="none"
                    fill-rule="evenodd"
                  /></svg>